<svg xmlns="http://www.w3.org/2000/svg" viewBox="0 0 227.07 202.64"><defs><style>.cls-1{fill:#7ceab8;}.cls-2{fill:#71c3a8;}.cls-3{fill:#465b80;}.cls-4{fill:#5da299;}.cls-5{fill:#7c97ea;}.cls-6{fill:#7184c3;}.cls-7{fill:#465080;}.cls-8{fill:#5d6ca2;}.cls-9{fill:#efac94;}.cls-10{fill:#8f5644;}.cls-11{fill:#c37e68;}.cls-12{fill:#663b2d;}.cls-13{fill:#ef9678;}.cls-14{fill:#b1735f;}.cls-15{fill:#f29f83;}.cls-16{fill:#b07461;}</style></defs><g id="Layer_2" data-name="Layer 2"><g id="buildings"><rect class="cls-1" y="78.98" width="24" height="123.67"/><rect class="cls-2" x="24" y="78.98" width="41" height="123.67"/><rect class="cls-3" x="28" y="93.31" width="32" height="8"/><rect class="cls-3" x="28" y="111.64" width="32" height="8"/><rect class="cls-3" x="28" y="129.98" width="32" height="8"/><rect class="cls-3" x="28" y="148.31" width="32" height="8"/><rect class="cls-3" x="28" y="166.64" width="32" height="8"/><rect class="cls-3" x="28" y="184.98" width="32" height="8"/><rect class="cls-4" x="4" y="93.31" width="12" height="8"/><rect class="cls-4" x="4" y="111.64" width="12" height="8"/><rect class="cls-4" x="4" y="129.98" width="12" height="8"/><rect class="cls-4" x="4" y="148.31" width="12" height="8"/><rect class="cls-4" x="4" y="166.64" width="12" height="8"/><rect class="cls-4" x="4" y="184.98" width="12" height="8"/><rect class="cls-5" x="162.07" y="114.78" width="24" height="87.86"/><rect class="cls-6" x="186.07" y="114.78" width="41" height="87.86"/><rect class="cls-7" x="190.07" y="129.98" width="32" height="8"/><rect class="cls-7" x="190.07" y="148.31" width="32" height="8"/><rect class="cls-7" x="190.07" y="166.64" width="32" height="8"/><rect class="cls-7" x="190.07" y="184.98" width="32" height="8"/><rect class="cls-8" x="166.07" y="129.98" width="12" height="8"/><rect class="cls-8" x="166.07" y="148.31" width="12" height="8"/><rect class="cls-8" x="166.07" y="166.64" width="12" height="8"/><rect class="cls-8" x="166.07" y="184.98" width="12" height="8"/><rect class="cls-9" x="80.04" y="28.17" width="33.2" height="174"/><rect class="cls-10" x="84.94" y="73.25" width="24" height="8.17"/><rect class="cls-10" x="84.94" y="91.97" width="24" height="8.17"/><rect class="cls-10" x="84.94" y="110.69" width="24" height="8.17"/><rect class="cls-10" x="84.94" y="129.42" width="24" height="8.17"/><rect class="cls-10" x="84.94" y="148.14" width="24" height="8.17"/><rect class="cls-10" x="84.94" y="166.86" width="24" height="8.17"/><rect class="cls-10" x="84.94" y="185.59" width="24" height="8.17"/><circle class="cls-10" cx="96.94" cy="52.17" r="12"/><rect class="cls-11" x="113.24" y="28.17" width="33.8" height="174"/><rect class="cls-12" x="118.14" y="73.25" width="24" height="8.17"/><rect class="cls-12" x="118.14" y="91.97" width="24" height="8.17"/><rect class="cls-12" x="118.14" y="110.69" width="24" height="8.17"/><rect class="cls-12" x="118.14" y="129.42" width="24" height="8.17"/><rect class="cls-12" x="118.14" y="148.14" width="24" height="8.17"/><rect class="cls-12" x="118.14" y="166.86" width="24" height="8.17"/><rect class="cls-12" x="118.14" y="185.59" width="24" height="8.17"/><circle class="cls-12" cx="130.14" cy="52.17" r="12"/><rect class="cls-10" x="80.04" y="24.17" width="67" height="4"/><polygon class="cls-13" points="80.04 24.17 87.75 16.34 113.24 16.34 113.24 24.17 80.04 24.17"/><polygon class="cls-14" points="147.04 24.17 139.19 16.34 113.24 16.34 113.24 24.17 147.04 24.17"/><polygon class="cls-15" points="113.24 0 93.96 16.34 113.24 16.34 113.24 0"/><polygon class="cls-16" points="113.24 0 132.51 16.34 113.24 16.34 113.24 0"/></g></g></svg>